<?xml version="1.0" standalone="no"?>
<!DOCTYPE svg PUBLIC "-//W3C//DTD SVG 20010904//EN"
 "http://www.w3.org/TR/2001/REC-SVG-20010904/DTD/svg10.dtd">
<svg version="1.0" xmlns="http://www.w3.org/2000/svg"
 width="500.000000pt" height="500.000000pt" viewBox="0 0 500.000000 500.000000"
 preserveAspectRatio="xMidYMid meet">

<g transform="translate(0.000000,500.000000) scale(0.100000,-0.100000)"
fill="#000000" stroke="none">
<path d="M1577 3619 c-57 -13 -141 -56 -196 -99 -88 -70 -171 -227 -171 -326
l0 -34 130 0 130 0 11 44 c13 53 65 117 113 140 48 22 137 21 185 -4 53 -27
97 -83 111 -142 l12 -48 129 0 129 0 0 28 c0 15 -7 54 -15 85 -65 251 -324
413 -568 356z"/>
<path d="M1820 3105 c0 -2 12 -11 28 -19 44 -23 100 -83 130 -139 24 -47 27
-62 27 -152 0 -89 -3 -105 -27 -151 -32 -60 -105 -128 -155 -145 l-35 -11 60
-29 c76 -37 143 -110 172 -187 18 -47 21 -72 18 -142 -5 -98 -27 -154 -90
-225 l-40 -45 166 0 c188 0 218 7 260 62 l26 35 0 527 0 527 -22 30 c-46 63
-74 69 -308 69 -115 0 -210 -2 -210 -5z"/>
<path d="M1280 2740 l0 -140 140 0 c100 0 151 4 175 14 66 28 93 114 60 192
-24 58 -73 74 -237 74 l-138 0 0 -140z"/>
<path d="M2581 2519 c-248 -124 -217 -569 45 -645 96 -28 190 -8 257 54 l27
26 0 -42 0 -42 105 0 105 0 0 335 0 335 -105 0 -105 0 0 -41 0 -41 -40 35
c-78 67 -188 77 -289 26z m287 -192 c34 -35 37 -41 40 -109 4 -84 -14 -124
-70 -158 -129 -78 -266 79 -198 227 27 60 70 85 138 80 46 -3 59 -9 90 -40z"/>
<path d="M4218 2540 c-40 -12 -95 -48 -118 -77 l-20 -26 0 52 0 51 -105 0
-105 0 0 -335 0 -335 105 0 105 0 0 185 c0 210 7 236 65 261 19 8 59 14 90 14
l55 0 0 110 c0 108 0 110 -22 109 -13 0 -35 -4 -50 -9z"/>
<path d="M3240 2455 l0 -84 134 -3 135 -3 -140 -168 -139 -169 0 -79 0 -79
265 0 265 0 0 85 0 84 -146 3 -145 3 140 165 140 165 1 83 0 82 -255 0 -255 0
0 -85z"/>
<path d="M1280 2200 l0 -152 163 4 c178 3 207 12 241 68 22 39 21 117 -4 157
-37 62 -57 68 -237 71 l-163 4 0 -152z"/>
</g>
</svg>
