<?xml version="1.0" standalone="no"?>
<!DOCTYPE svg PUBLIC "-//W3C//DTD SVG 20010904//EN"
 "http://www.w3.org/TR/2001/REC-SVG-20010904/DTD/svg10.dtd">
<svg version="1.0" xmlns="http://www.w3.org/2000/svg"
 width="500.000000pt" height="500.000000pt" viewBox="0 0 500.000000 500.000000"
 preserveAspectRatio="xMidYMid meet">

<g transform="translate(0.000000,500.000000) scale(0.100000,-0.100000)"
fill="#000000" stroke="none">
<path d="M2280 4326 c-215 -45 -436 -191 -559 -369 -44 -65 -96 -172 -119
-248 -24 -78 -44 -211 -36 -234 5 -13 39 -15 249 -15 l242 0 6 52 c14 113 107
242 212 294 140 68 311 50 427 -46 59 -49 115 -144 134 -227 l16 -73 245 0
245 0 -7 68 c-25 236 -144 460 -327 612 -83 68 -240 150 -338 175 -88 23 -305
29 -390 11z"/>
<path d="M2557 3340 c171 -61 313 -178 378 -314 50 -104 68 -198 62 -321 -11
-230 -120 -405 -311 -499 -39 -19 -80 -37 -91 -41 -15 -5 -4 -12 48 -30 98
-34 170 -80 242 -157 119 -128 169 -258 170 -438 0 -175 -35 -285 -134 -413
l-52 -67 326 0 c301 0 329 1 363 19 51 26 109 87 138 143 l24 47 0 941 0 941
-25 49 c-29 57 -84 114 -137 141 -35 18 -65 19 -545 18 -507 0 -508 0 -456
-19z"/>
<path d="M1650 2635 l0 -266 268 3 c257 3 269 4 314 27 118 58 168 200 118
334 -24 63 -67 108 -135 139 -47 22 -64 23 -307 26 l-258 4 0 -267z"/>
<path d="M1650 1631 l0 -281 264 0 c235 0 271 2 328 20 86 26 141 74 167 146
56 148 -4 302 -144 366 -48 22 -62 23 -332 26 l-283 3 0 -280z"/>
</g>
</svg>
